<svg width="719" height="351" viewBox="0 0 719 351" fill="none" xmlns="http://www.w3.org/2000/svg">
<g filter="url(#filter0_d)">
<path d="M21.2146 54.6175L61.0839 78.2678L57.5193 96.1248L42.5073 109.647L2.63804 85.9963L17.273 72.9295L21.2146 54.6175Z" fill="#2D4D7D"/>
</g>
<ellipse rx="151.93" ry="152.037" transform="matrix(0.998637 -0.0524676 -0.131581 0.991268 209.312 192.319)" fill="#1983DE"/>
<ellipse rx="120.605" ry="120.689" transform="matrix(0.998637 -0.0524676 -0.131581 0.991268 209.312 192.319)" fill="#D3EBFF"/>
<ellipse rx="90.845" ry="90.9085" transform="matrix(0.998637 -0.0524676 -0.131581 0.991268 207.955 190.848)" fill="#1983DE"/>
<ellipse rx="26.6246" ry="26.6466" transform="matrix(0.998633 -0.0524312 -0.131673 0.991273 210.138 186.104)" fill="#0E2C59"/>
<mask id="mask0" mask-type="alpha" maskUnits="userSpaceOnUse" x="4" y="63" width="204" height="123">
<rect width="11.1815" height="232.899" rx="5.59075" transform="matrix(-0.499847 0.866601 -0.865449 -0.500153 209.944 177.872)" fill="#F8A000"/>
</mask>
<g mask="url(#mask0)">
<rect width="11.1815" height="232.899" rx="5.59075" transform="matrix(-0.499847 0.866601 -0.86545 -0.500153 209.945 177.872)" fill="#163869"/>
<path d="M190.288 179.514L195.944 169.709L178.803 160.054L145.119 153.412L190.288 179.514Z" fill="#0E2C59"/>
</g>
<path fill-rule="evenodd" clip-rule="evenodd" d="M201.437 165.312C201.246 165.009 200.908 164.832 200.55 164.847L176.895 165.839C176.128 165.871 175.682 166.723 176.092 167.373L188.73 187.41C188.921 187.713 189.259 187.891 189.617 187.876L204.622 187.246L209.709 178.428L201.437 165.312Z" fill="white"/>
<path d="M431.082 290.309H404.022V184.97H487.457V206.038H431.082V230.867H475.43V251.935H431.082V290.309Z" fill="#163869"/>
<path d="M529.55 213.562V290.309H503.242V233.877H491.967V213.562H529.55ZM503.242 183.465H529.55V204.533H503.242V183.465Z" fill="#163869"/>
<path d="M588.979 230.867C583.667 230.867 577.654 231.871 570.939 233.877V290.309H544.631V210.552H567.932L569.436 218.076C574.146 214.966 578.957 212.709 583.868 211.305C588.879 209.8 593.088 209.047 596.496 209.047H603.261C610.076 209.047 615.538 211.104 619.647 215.217C623.756 219.33 625.811 224.798 625.811 231.62V290.309H599.502V236.134C599.502 234.63 599.001 233.376 597.999 232.372C596.997 231.369 595.744 230.867 594.241 230.867H588.979Z" fill="#163869"/>
<path d="M695.698 290.309L694.195 282.784C689.484 285.894 684.624 288.202 679.613 289.707C674.702 291.111 670.542 291.813 667.135 291.813H660.37C653.555 291.813 648.093 289.757 643.984 285.644C639.874 281.53 637.82 276.063 637.82 269.241V234.63C637.82 227.105 639.925 221.236 644.134 217.023C648.443 212.709 654.357 210.552 661.873 210.552H692.692V184.97H719V290.309H695.698ZM674.652 269.993C679.963 269.993 685.977 268.99 692.692 266.984V230.867H670.142C666.133 230.867 664.128 232.874 664.128 236.887V264.726C664.128 266.231 664.629 267.485 665.632 268.488C666.634 269.492 667.887 269.993 669.39 269.993H674.652Z" fill="#163869"/>
<path d="M404.022 56.4315H467.162C477.685 56.4315 485.302 58.8392 490.013 63.6547C494.823 68.3699 497.229 75.9944 497.229 86.5283V101.577C497.229 112.111 494.823 119.785 490.013 124.601C485.302 129.316 477.685 131.673 467.162 131.673H431.082V161.77H404.022V56.4315ZM470.168 86.5283C470.168 80.5089 467.162 77.4992 461.148 77.4992H431.082V110.606H461.148C467.162 110.606 470.168 107.596 470.168 101.577V86.5283Z" fill="#1983DE"/>
<path d="M555.101 103.834C548.787 103.834 542.273 105.339 535.558 108.348V161.77H509.249V82.0137H532.551L534.054 91.7952C542.674 84.271 551.694 80.5089 561.114 80.5089H567.879V103.834H555.101Z" fill="#1983DE"/>
<path d="M656.641 139.198C656.641 146.722 654.486 152.641 650.177 156.955C645.967 161.168 640.104 163.275 632.588 163.275H598.011C590.494 163.275 584.581 161.168 580.271 156.955C576.062 152.641 573.957 146.722 573.957 139.198V104.586C573.957 97.0621 576.062 91.1933 580.271 86.9797C584.581 82.6658 590.494 80.5089 598.011 80.5089H632.588C640.104 80.5089 645.967 82.6658 650.177 86.9797C654.486 91.1933 656.641 97.0621 656.641 104.586V139.198ZM630.333 106.844C630.333 102.831 628.328 100.824 624.319 100.824H606.279C602.27 100.824 600.266 102.831 600.266 106.844V136.94C600.266 140.953 602.27 142.96 606.279 142.96H624.319C628.328 142.96 630.333 140.953 630.333 136.94V106.844Z" fill="#1983DE"/>
<defs>
<filter id="filter0_d" x="1.63805" y="54.6175" width="59.4459" height="56.0291" filterUnits="userSpaceOnUse" color-interpolation-filters="sRGB">
<feFlood flood-opacity="0" result="BackgroundImageFix"/>
<feColorMatrix in="SourceAlpha" type="matrix" values="0 0 0 0 0 0 0 0 0 0 0 0 0 0 0 0 0 0 127 0"/>
<feOffset dx="-1" dy="1"/>
<feColorMatrix type="matrix" values="0 0 0 0 0.177 0 0 0 0 0.302867 0 0 0 0 0.491667 0 0 0 0.11 0"/>
<feBlend mode="normal" in2="BackgroundImageFix" result="effect1_dropShadow"/>
<feBlend mode="normal" in="SourceGraphic" in2="effect1_dropShadow" result="shape"/>
</filter>
</defs>
</svg>
