<svg width="719" height="351" viewBox="0 0 719 351" fill="none" xmlns="http://www.w3.org/2000/svg">
<g filter="url(#filter0_d)">
<path d="M21.2146 54.6175L61.0839 78.2678L57.5192 96.1248L42.5073 109.647L2.63799 85.9963L17.273 72.9295L21.2146 54.6175Z" fill="#2D4D7D"/>
</g>
<ellipse rx="151.93" ry="152.037" transform="matrix(0.998637 -0.0524676 -0.131581 0.991268 209.312 192.319)" fill="#1983DE"/>
<ellipse rx="120.605" ry="120.689" transform="matrix(0.998637 -0.0524676 -0.131581 0.991268 209.312 192.319)" fill="#D3EBFF"/>
<ellipse rx="90.845" ry="90.9085" transform="matrix(0.998637 -0.0524676 -0.131581 0.991268 207.955 190.848)" fill="#1983DE"/>
<ellipse rx="26.6246" ry="26.6466" transform="matrix(0.998633 -0.0524312 -0.131673 0.991273 210.138 186.104)" fill="#0E2C59"/>
<mask id="mask0" mask-type="alpha" maskUnits="userSpaceOnUse" x="4" y="63" width="204" height="123">
<rect width="11.1815" height="232.899" rx="5.59075" transform="matrix(-0.499847 0.866601 -0.865449 -0.500153 209.944 177.872)" fill="#F8A000"/>
</mask>
<g mask="url(#mask0)">
<rect width="11.1815" height="232.899" rx="5.59075" transform="matrix(-0.499847 0.866601 -0.86545 -0.500153 209.945 177.872)" fill="#163869"/>
<path d="M190.288 179.514L195.944 169.709L178.803 160.054L145.119 153.412L190.288 179.514Z" fill="#0E2C59"/>
</g>
<path fill-rule="evenodd" clip-rule="evenodd" d="M201.437 165.312C201.246 165.009 200.908 164.832 200.55 164.847L176.895 165.839C176.128 165.871 175.682 166.723 176.092 167.373L188.73 187.41C188.921 187.713 189.259 187.891 189.617 187.876L204.622 187.246L209.709 178.428L201.437 165.312Z" fill="white"/>
<path d="M431.082 291.686H404.022V186.347H487.457V207.415H431.082V232.245H475.43V253.313H431.082V291.686Z" fill="white"/>
<path d="M529.55 214.939V291.686H503.242V235.255H491.967V214.939H529.55ZM503.242 184.843H529.55V205.91H503.242V184.843Z" fill="white"/>
<path d="M588.979 232.245C583.667 232.245 577.654 233.248 570.939 235.255V291.686H544.631V211.93H567.932L569.436 219.454C574.146 216.344 578.957 214.087 583.868 212.682C588.879 211.177 593.088 210.425 596.496 210.425H603.261C610.076 210.425 615.538 212.481 619.647 216.595C623.756 220.708 625.811 226.175 625.811 232.997V291.686H599.502V237.512C599.502 236.007 599.001 234.753 597.999 233.75C596.997 232.747 595.744 232.245 594.241 232.245H588.979Z" fill="white"/>
<path d="M695.698 291.686L694.195 284.162C689.485 287.272 684.624 289.579 679.613 291.084C674.702 292.489 670.543 293.191 667.135 293.191H660.37C653.555 293.191 648.093 291.134 643.984 287.021C639.874 282.908 637.82 277.44 637.82 270.618V236.007C637.82 228.483 639.925 222.614 644.134 218.4C648.443 214.087 654.357 211.93 661.873 211.93H692.692V186.347H719V291.686H695.698ZM674.652 271.371C679.963 271.371 685.977 270.368 692.692 268.361V232.245H670.142C666.133 232.245 664.128 234.251 664.128 238.264V266.104C664.128 267.609 664.629 268.863 665.632 269.866C666.634 270.869 667.887 271.371 669.39 271.371H674.652Z" fill="white"/>
<path d="M404.022 57.809H467.162C477.685 57.809 485.302 60.2168 490.013 65.0322C494.823 69.7474 497.229 77.3719 497.229 87.9058V102.954C497.229 113.488 494.823 121.163 490.013 125.978C485.302 130.693 477.685 133.051 467.162 133.051H431.082V163.148H404.022V57.809ZM470.169 87.9058C470.169 81.8864 467.162 78.8768 461.149 78.8768H431.082V111.983H461.149C467.162 111.983 470.169 108.974 470.169 102.954V87.9058Z" fill="white"/>
<path d="M555.101 105.211C548.787 105.211 542.273 106.716 535.558 109.726V163.148H509.249V83.3913H532.551L534.054 93.1727C542.674 85.6485 551.694 81.8864 561.115 81.8864H567.88V105.211H555.101Z" fill="white"/>
<path d="M656.641 140.575C656.641 148.099 654.486 154.018 650.177 158.332C645.967 162.546 640.104 164.653 632.588 164.653H598.011C590.494 164.653 584.581 162.546 580.271 158.332C576.062 154.018 573.957 148.099 573.957 140.575V105.964C573.957 98.4397 576.062 92.5708 580.271 88.3573C584.581 84.0434 590.494 81.8864 598.011 81.8864H632.588C640.104 81.8864 645.967 84.0434 650.177 88.3573C654.486 92.5708 656.641 98.4397 656.641 105.964V140.575ZM630.333 108.221C630.333 104.208 628.328 102.202 624.319 102.202H606.279C602.27 102.202 600.266 104.208 600.266 108.221V138.318C600.266 142.331 602.27 144.337 606.279 144.337H624.319C628.328 144.337 630.333 142.331 630.333 138.318V108.221Z" fill="white"/>
<defs>
<filter id="filter0_d" x="1.638" y="54.6175" width="59.4459" height="56.0291" filterUnits="userSpaceOnUse" color-interpolation-filters="sRGB">
<feFlood flood-opacity="0" result="BackgroundImageFix"/>
<feColorMatrix in="SourceAlpha" type="matrix" values="0 0 0 0 0 0 0 0 0 0 0 0 0 0 0 0 0 0 127 0"/>
<feOffset dx="-1" dy="1"/>
<feColorMatrix type="matrix" values="0 0 0 0 0.177 0 0 0 0 0.302867 0 0 0 0 0.491667 0 0 0 0.11 0"/>
<feBlend mode="normal" in2="BackgroundImageFix" result="effect1_dropShadow"/>
<feBlend mode="normal" in="SourceGraphic" in2="effect1_dropShadow" result="shape"/>
</filter>
</defs>
</svg>
