<svg width="719" height="351" fill="none" xmlns="http://www.w3.org/2000/svg"><g filter="url(#filter0_d)"><path d="M21.215 54.617l39.869 23.65-3.565 17.858-15.012 13.522-39.869-23.65L17.273 72.93l3.942-18.313z" fill="#2D4D7D"/></g><ellipse rx="151.93" ry="152.037" transform="matrix(.99864 -.05247 -.13158 .99127 209.312 192.319)" fill="#1983DE"/><ellipse rx="120.605" ry="120.689" transform="matrix(.99864 -.05247 -.13158 .99127 209.312 192.319)" fill="#D3EBFF"/><ellipse rx="90.845" ry="90.909" transform="matrix(.99864 -.05247 -.13158 .99127 207.955 190.848)" fill="#1983DE"/><ellipse rx="26.625" ry="26.647" transform="matrix(.99863 -.05243 -.13167 .99127 210.138 186.104)" fill="#0E2C59"/><mask id="a" maskUnits="userSpaceOnUse" x="4" y="63" width="204" height="123"><rect width="11.181" height="232.899" rx="5.591" transform="matrix(-.49985 .8666 -.86545 -.50015 209.944 177.872)" fill="#F8A000"/></mask><g mask="url(#a)"><rect width="11.181" height="232.899" rx="5.591" transform="matrix(-.49985 .8666 -.86545 -.50015 209.945 177.872)" fill="#163869"/><path d="M190.288 179.514l5.656-9.805-17.141-9.655-33.684-6.642 45.169 26.102z" fill="#0E2C59"/></g><path fill-rule="evenodd" clip-rule="evenodd" d="M201.437 165.312a.998.998 0 00-.887-.465l-23.655.992a1.001 1.001 0 00-.803 1.534l12.638 20.037a.999.999 0 00.887.466l15.005-.63 5.087-8.818-8.272-13.116z" fill="#fff"/><path d="M431.082 291.686h-27.06V186.347h83.435v21.068h-56.375v24.83h44.348v21.068h-44.348v38.373zm98.468-76.747v76.747h-26.308v-56.431h-11.275v-20.316h37.583zm-26.308-30.096h26.308v21.067h-26.308v-21.067zm85.737 47.402c-5.312 0-11.325 1.003-18.04 3.01v56.431h-26.308V211.93h23.301l1.504 7.524c4.71-3.11 9.521-5.367 14.432-6.772 5.011-1.505 9.22-2.257 12.628-2.257h6.765c6.815 0 12.277 2.056 16.386 6.17 4.109 4.113 6.164 9.58 6.164 16.402v58.689h-26.309v-54.174c0-1.505-.501-2.759-1.503-3.762-1.002-1.003-2.255-1.505-3.758-1.505h-5.262zm106.719 59.441l-1.503-7.524c-4.71 3.11-9.571 5.417-14.582 6.922-4.911 1.405-9.07 2.107-12.478 2.107h-6.765c-6.815 0-12.277-2.057-16.386-6.17-4.11-4.113-6.164-9.581-6.164-16.403v-34.611c0-7.524 2.105-13.393 6.314-17.607 4.309-4.313 10.223-6.47 17.739-6.47h30.819v-25.583H719v105.339h-23.302zm-21.046-20.315c5.311 0 11.325-1.003 18.04-3.01v-36.116h-22.55c-4.009 0-6.014 2.006-6.014 6.019v27.84c0 1.505.501 2.759 1.504 3.762 1.002 1.003 2.255 1.505 3.758 1.505h5.262zM404.022 57.809h63.14c10.523 0 18.14 2.408 22.851 7.223 4.81 4.715 7.216 12.34 7.216 22.874v15.048c0 10.534-2.406 18.209-7.216 23.024-4.711 4.715-12.328 7.073-22.851 7.073h-36.08v30.097h-27.06V57.809zm66.147 30.097c0-6.02-3.007-9.03-9.02-9.03h-30.067v33.107h30.067c6.013 0 9.02-3.009 9.02-9.029V87.906zm84.932 17.305c-6.314 0-12.828 1.505-19.543 4.515v53.422h-26.309V83.391h23.302l1.503 9.782c8.62-7.525 17.64-11.287 27.061-11.287h6.765v23.325h-12.779zm101.54 35.364c0 7.524-2.155 13.443-6.464 17.757-4.21 4.214-10.073 6.321-17.589 6.321h-34.577c-7.517 0-13.43-2.107-17.74-6.321-4.209-4.314-6.314-10.233-6.314-17.757v-34.611c0-7.524 2.105-13.393 6.314-17.607 4.31-4.314 10.223-6.47 17.74-6.47h34.577c7.516 0 13.379 2.156 17.589 6.47 4.309 4.214 6.464 10.083 6.464 17.607v34.611zm-26.308-32.354c0-4.013-2.005-6.019-6.014-6.019h-18.04c-4.009 0-6.013 2.006-6.013 6.019v30.097c0 4.013 2.004 6.019 6.013 6.019h18.04c4.009 0 6.014-2.006 6.014-6.019v-30.097z" fill="#fff"/><defs><filter id="filter0_d" x="1.638" y="54.617" width="59.446" height="56.029" filterUnits="userSpaceOnUse" color-interpolation-filters="sRGB"><feFlood flood-opacity="0" result="BackgroundImageFix"/><feColorMatrix in="SourceAlpha" values="0 0 0 0 0 0 0 0 0 0 0 0 0 0 0 0 0 0 127 0"/><feOffset dx="-1" dy="1"/><feColorMatrix values="0 0 0 0 0.177 0 0 0 0 0.302867 0 0 0 0 0.491667 0 0 0 0.11 0"/><feBlend in2="BackgroundImageFix" result="effect1_dropShadow"/><feBlend in="SourceGraphic" in2="effect1_dropShadow" result="shape"/></filter></defs></svg>